<svg class="svg-search-icon" baseProfile="tiny" xmlns="http://www.w3.org/2000/svg" viewBox="598 -476.1 1792 1792"><path d="M1814 355.9c0-123.3-43.8-228.8-131.5-316.5-87.7-87.7-193.2-131.5-316.5-131.5s-228.8 43.8-316.5 131.5C961.8 127.1 918 232.6 918 355.9s43.8 228.8 131.5 316.5c87.7 87.7 193.2 131.5 316.5 131.5s228.8-43.8 316.5-131.5c87.7-87.7 131.5-193.2 131.5-316.5zm512 832c0 34.7-12.7 64.7-38 90s-55.3 38-90 38c-36 0-66-12.7-90-38l-343-342c-119.3 82.7-252.3 124-399 124-95.3 0-186.5-18.5-273.5-55.5s-162-87-225-150-113-138-150-225S662 451.2 662 355.9s18.5-186.5 55.5-273.5 87-162 150-225 138-113 225-150 178.2-55.5 273.5-55.5 186.5 18.5 273.5 55.5 162 87 225 150 113 138 150 225 55.5 178.2 55.5 273.5c0 146.7-41.3 279.7-124 399l343 343c24.7 24.7 37 54.7 37 90z"/></svg>