<svg baseProfile="tiny" xmlns="http://www.w3.org/2000/svg" viewBox="-287 164.9 616 512"><path d="m315 283.5-64.9-103.6a32 32 0 0 0-27.1-15h-404a32 32 0 0 0-27.1 15L-273 283.5c-33.5 53.5-3.8 127.9 58.8 136.4a98.7 98.7 0 0 0 87.5-32.2 99 99 0 0 0 147.6 0 99 99 0 0 0 147.6 0 99 99 0 0 0 87.5 32.2c62.8-8.4 92.6-82.8 59-136.4zm-72.5 169.4c-10 0-19.9-1.5-29.5-3.8v99.8h-384v-99.8c-9.6 2.2-19.5 3.8-29.5 3.8a125.8 125.8 0 0 1-34.4-4.8v196.8a32 32 0 0 0 32 32h448a32 32 0 0 0 32-32V448.1c-5.4 1.6-10.8 2.9-16.4 3.6a139 139 0 0 1-18.2 1.2z"/></svg>